<svg width="131" height="131" viewBox="0 0 131 131" fill="none" xmlns="http://www.w3.org/2000/svg">
<g clip-path="url(#clip0_1:12)">
<path d="M16.375 126.906C16.3745 127.617 16.5591 128.316 16.9107 128.934C17.2622 129.552 17.7686 130.067 18.3801 130.43C18.9915 130.793 19.6868 130.99 20.3976 131.002C21.1083 131.015 21.8101 130.842 22.4338 130.501L65.5 107.002L108.566 130.501C109.19 130.842 109.892 131.015 110.602 131.002C111.313 130.99 112.009 130.793 112.62 130.43C113.231 130.067 113.738 129.552 114.089 128.934C114.441 128.316 114.626 127.617 114.625 126.906V16.375C114.625 12.0321 112.9 7.86703 109.829 4.79613C106.758 1.72522 102.593 0 98.25 0L32.75 0C28.4071 0 24.242 1.72522 21.1711 4.79613C18.1002 7.86703 16.375 12.0321 16.375 16.375V126.906ZM65.5 36.1069C76.8561 24.4397 105.242 44.8675 65.5 71.1248C25.7579 44.8675 54.1439 24.4479 65.5 36.1233V36.1069Z" fill="white"/>
</g>
<defs>
<clipPath id="clip0_1:12">
<rect width="131" height="131" fill="white"/>
</clipPath>
</defs>
</svg>
